<svg width="500" height="500" viewBox="0 0 500 500" fill="none" xmlns="http://www.w3.org/2000/svg">
<g clip-path="url(#clip0_1036_4)">
<rect width="500" height="500" fill="white"/>
<rect width="500" height="500" fill="#D9D9D9"/>
<path d="M47.75 350V189H166.5V220H88V253.75H157.25V285.25H88V319H166.5V350H47.75ZM185.689 350V189H266.189C285.189 189 299.189 194 308.189 204C317.189 214 321.689 227.417 321.689 244.25C321.689 255.083 318.939 264.583 313.439 272.75C307.939 280.917 300.439 287 290.939 291C293.273 292.833 295.106 294.917 296.439 297.25C297.939 299.417 299.523 302.5 301.189 306.5L320.189 350H278.189L260.189 309C258.689 305.5 256.773 303 254.439 301.5C252.106 299.833 248.773 299 244.439 299H225.939V350H185.689ZM225.939 268H255.689C263.523 268 269.606 266.083 273.939 262.25C278.439 258.25 280.689 252.25 280.689 244.25C280.689 228.083 272.939 220 257.439 220H225.939V268ZM342.184 350V189H382.434V319H458.434V350H342.184Z" fill="black"/>
</g>
<defs>
<clipPath id="clip0_1036_4">
<rect width="500" height="500" fill="white"/>
</clipPath>
</defs>
</svg>
